<svg width="364" height="234" viewBox="0 0 364 234" fill="none" xmlns="http://www.w3.org/2000/svg">
<g filter="url(#filter0_b_904_199)">
<rect x="2" y="2" width="360" height="230" rx="15.1928" fill="url(#paint0_linear_904_199)"/>
<rect x="1.36697" y="1.36697" width="361.266" height="231.266" rx="15.8259" stroke="url(#paint1_radial_904_199)" stroke-width="1.26607"/>
<rect x="1.36697" y="1.36697" width="361.266" height="231.266" rx="15.8259" stroke="url(#paint2_linear_904_199)" stroke-opacity="0.4" stroke-width="1.26607"/>
<rect x="1.36697" y="1.36697" width="361.266" height="231.266" rx="15.8259" stroke="url(#paint3_linear_904_199)" stroke-width="1.26607"/>
</g>
<mask id="mask0_904_199" style="mask-type:alpha" maskUnits="userSpaceOnUse" x="2" y="2" width="360" height="230">
<rect x="2" y="2" width="360" height="230" rx="15.4011" fill="#16084C"/>
</mask>
<g mask="url(#mask0_904_199)">
<g filter="url(#filter1_f_904_199)">
<path d="M453.518 -133.506C475.881 -87.3533 416.166 -11.492 320.142 35.9346C224.118 83.3613 128.147 84.3937 105.784 38.2406C83.4215 -7.91245 143.136 -83.7738 239.16 -131.2C335.184 -178.627 431.156 -179.659 453.518 -133.506Z" fill="#DCADED"/>
</g>
<g filter="url(#filter2_f_904_199)">
<path d="M401.134 -167.756C423.497 -121.603 363.783 -45.742 267.758 1.68464C171.734 49.1113 75.7629 50.1437 53.4003 3.99062C31.0377 -42.1624 90.7521 -118.024 186.776 -165.45C282.8 -212.877 378.772 -213.909 401.134 -167.756Z" fill="#9D47C6"/>
</g>
</g>
<path fill-rule="evenodd" clip-rule="evenodd" d="M23.3845 37.9562L23.3807 37.9613L23.3771 37.9665C23.1722 38.2566 22.7132 38.3418 22.3542 38.0883C22.0669 37.8854 21.9805 37.4332 22.2252 37.0758C22.5903 36.6105 22.8554 36.0665 23.0295 35.5346C23.2108 34.981 23.2951 34.3518 23.2918 33.7348C23.2886 33.1177 23.1976 32.4895 23.0104 31.9378C22.8306 31.4078 22.5597 30.8666 22.1897 30.4052C21.9412 30.0505 22.0228 29.5974 22.3079 29.3914C22.6642 29.1341 23.124 29.2145 23.332 29.5024L23.3357 29.5075L23.3396 29.5126C23.8001 30.1199 24.1778 30.7946 24.4035 31.4565C24.6411 32.2352 24.7925 32.9884 24.7964 33.7267C24.8005 34.5037 24.7263 35.2391 24.4412 35.963C24.1307 36.7514 23.83 37.3556 23.3845 37.9562ZM26.7142 39.3982L26.7232 39.3855L26.7314 39.3722C27.7521 37.7369 28.3408 35.7636 28.3299 33.7079C28.3189 31.6527 27.7095 29.6863 26.672 28.0622C26.4471 27.7056 26.5481 27.284 26.9271 27.0102C27.1817 26.8264 27.6595 26.8915 27.943 27.2714C29.1145 29.13 29.8221 31.3768 29.8344 33.6999C29.8472 36.1023 29.1641 38.2762 28.0115 40.1483C27.7449 40.5153 27.3367 40.6182 26.9847 40.4102C26.603 40.1306 26.5333 39.6544 26.7142 39.3982ZM32.6892 24.8285L32.6992 24.8483L32.7109 24.8673C34.2982 27.4552 35.1803 30.4403 35.1975 33.6714C35.2147 36.9009 34.3652 39.894 32.8069 42.4978C32.568 42.8819 32.1647 42.9902 31.7558 42.7999C31.3836 42.5574 31.2836 42.1554 31.478 41.7495C32.8033 39.3959 33.6274 36.6224 33.6117 33.6798C33.5961 30.7503 32.8301 27.9813 31.3894 25.6275C31.1944 25.2256 31.291 24.8253 31.6587 24.58C32.1024 24.3681 32.5346 24.5234 32.6892 24.8285ZM37.3892 22.3656L37.396 22.3792L37.4037 22.3924C39.3272 25.7173 40.4573 29.5188 40.4793 33.6432C40.5012 37.7635 39.4139 41.5731 37.5295 44.9159C37.2901 45.2956 36.8887 45.402 36.4817 45.2126C36.1107 44.9708 36.0102 44.5706 36.2022 44.166C38.0176 41.0676 38.9951 37.478 38.9748 33.6512C38.9543 29.8146 37.8525 26.2389 36.0925 23.1711C35.872 22.7233 36.0274 22.2847 36.3352 22.1287C36.787 21.8998 37.2319 22.0552 37.3892 22.3656Z" fill="white"/>
<path d="M299.487 28.2948C300.054 28.1055 300.659 28.0045 301.287 28.0045C304.034 28.0045 306.327 29.9586 306.851 32.5565L310.745 31.7612C309.853 27.348 305.956 24.0255 301.287 24.0255C300.215 24.0255 299.19 24.1997 298.227 24.5229L299.487 28.2948Z" fill="#EDDFDF"/>
<path d="M294.893 40.9335L297.526 37.9518C296.352 36.9091 295.611 35.3867 295.611 33.6901C295.611 31.996 296.352 30.4736 297.526 29.4334L294.893 26.4492C292.897 28.2216 291.637 30.8094 291.637 33.6901C291.637 36.5733 292.897 39.1612 294.893 40.9335" fill="#EDDFDF"/>
<path d="M306.851 34.8313C306.324 37.4267 304.034 39.3783 301.289 39.3783C300.659 39.3783 300.052 39.2773 299.487 39.0854L298.227 42.8624C299.19 43.1831 300.218 43.3573 301.289 43.3573C305.954 43.3573 309.848 40.0398 310.745 35.6316L306.851 34.8313Z" fill="#EDDFDF"/>
<path d="M314.15 38.0756C314.021 37.8685 313.85 37.5378 313.744 37.2929C313.126 35.8589 313.099 34.3743 313.618 32.9504C314.19 31.3876 315.284 30.1934 316.698 29.5824C318.474 28.8174 320.437 28.9664 322.141 29.9788C323.222 30.5999 323.988 31.5593 324.571 32.9176C324.644 33.0918 324.709 33.2761 324.775 33.4351L314.15 38.0756ZM317.698 31.8875C316.435 32.4303 315.785 33.6169 315.921 35.0055L321.264 32.7004C320.344 31.6199 319.15 31.2613 317.698 31.8875V31.8875ZM321.929 36.9016C321.927 36.9016 321.927 36.9041 321.927 36.9041L321.816 36.8283C321.496 37.3459 320.999 37.7675 320.372 38.0402C319.177 38.5603 318.071 38.4265 317.275 37.7271L317.202 37.8382C317.202 37.8382 317.202 37.8357 317.199 37.8357L315.843 39.8681C316.181 40.1029 316.541 40.2998 316.919 40.4589C318.416 41.0825 319.949 41.0522 321.458 40.3958C322.549 39.9211 323.406 39.1991 323.991 38.2826L321.929 36.9016ZM328.487 26.5931V37.8887L330.241 38.6007L329.245 40.9285L327.31 40.1206C326.877 39.9312 326.579 39.6434 326.357 39.3177C326.143 38.987 325.984 38.53 325.984 37.919V26.5931H328.487ZM333.028 35.0131C333.028 34.0512 333.454 33.1877 334.125 32.602L332.325 30.5923C331.105 31.6729 330.337 33.2508 330.337 35.008C330.334 36.7678 331.103 38.3482 332.32 39.4288L334.117 37.4191C333.449 36.8309 333.028 35.9725 333.028 35.0131V35.0131ZM336.224 38.2169C335.871 38.2169 335.528 38.1563 335.211 38.0503L334.351 40.6078C334.939 40.8048 335.566 40.9133 336.221 40.9133C339.069 40.9159 341.446 38.891 341.998 36.2022L339.356 35.6619C339.057 37.1237 337.769 38.2195 336.224 38.2169V38.2169ZM336.231 29.1128C335.579 29.1128 334.951 29.2188 334.364 29.4132L335.216 31.9733C335.536 31.8673 335.876 31.8092 336.229 31.8092C337.776 31.8117 339.067 32.9125 339.359 34.3768L342 33.8416C341.458 31.1477 339.082 29.1153 336.231 29.1128V29.1128Z" fill="#EDDFDF"/>
<g filter="url(#filter3_di_904_199)">
<path d="M23.1506 105.315V102.409L30.4375 90.9284H32.9432V94.9511H31.4602L26.8665 102.221V102.357H37.2216V105.315H23.1506ZM31.5284 108.383V104.428L31.5966 103.141V90.9284H35.0568V108.383H31.5284ZM40.6404 108.383V105.724L46.8535 99.971C47.3819 99.4596 47.8251 98.9994 48.183 98.5903C48.5466 98.1812 48.8222 97.7807 49.0097 97.3886C49.1972 96.9909 49.291 96.5619 49.291 96.1017C49.291 95.5903 49.1745 95.15 48.9415 94.7807C48.7086 94.4057 48.3904 94.1187 47.987 93.9199C47.5836 93.7153 47.1262 93.613 46.6148 93.613C46.0807 93.613 45.6148 93.721 45.2171 93.9369C44.8194 94.1528 44.5126 94.4625 44.2966 94.8659C44.0807 95.2693 43.9728 95.7494 43.9728 96.3062H40.4699C40.4699 95.1642 40.7285 94.1727 41.2455 93.3318C41.7626 92.4909 42.487 91.8403 43.4188 91.3801C44.3506 90.9199 45.4245 90.6898 46.6404 90.6898C47.8904 90.6898 48.9785 90.9113 49.9046 91.3545C50.8364 91.792 51.5609 92.4 52.0779 93.1784C52.5949 93.9568 52.8535 94.8488 52.8535 95.8545C52.8535 96.5136 52.7228 97.1642 52.4614 97.8062C52.2057 98.4483 51.7484 99.1613 51.0893 99.9454C50.4302 100.724 49.5012 101.659 48.3023 102.749L45.754 105.247V105.366H53.0836V108.383H40.6404ZM56.0784 105.315V102.409L63.3653 90.9284H65.871V94.9511H64.388L59.7943 102.221V102.357H70.1494V105.315H56.0784ZM64.4562 108.383V104.428L64.5244 103.141V90.9284H67.9846V108.383H64.4562ZM73.5682 108.383V105.724L79.7813 99.971C80.3097 99.4596 80.7529 98.9994 81.1108 98.5903C81.4745 98.1812 81.75 97.7807 81.9375 97.3886C82.125 96.9909 82.2188 96.5619 82.2188 96.1017C82.2188 95.5903 82.1023 95.15 81.8693 94.7807C81.6364 94.4057 81.3182 94.1187 80.9148 93.9199C80.5114 93.7153 80.054 93.613 79.5426 93.613C79.0086 93.613 78.5426 93.721 78.1449 93.9369C77.7472 94.1528 77.4404 94.4625 77.2245 94.8659C77.0086 95.2693 76.9006 95.7494 76.9006 96.3062H73.3978C73.3978 95.1642 73.6563 94.1727 74.1733 93.3318C74.6904 92.4909 75.4148 91.8403 76.3466 91.3801C77.2784 90.9199 78.3523 90.6898 79.5682 90.6898C80.8182 90.6898 81.9063 90.9113 82.8324 91.3545C83.7642 91.792 84.4887 92.4 85.0057 93.1784C85.5228 93.9568 85.7813 94.8488 85.7813 95.8545C85.7813 96.5136 85.6506 97.1642 85.3892 97.8062C85.1336 98.4483 84.6762 99.1613 84.0171 99.9454C83.358 100.724 82.429 101.659 81.2301 102.749L78.6818 105.247V105.366H86.0114V108.383H73.5682ZM95.8959 105.315V102.409L103.183 90.9284H105.688V94.9511H104.206L99.6118 102.221V102.357H109.967V105.315H95.8959ZM104.274 108.383V104.428L104.342 103.141V90.9284H107.802V108.383H104.274ZM119.761 108.622C118.556 108.622 117.482 108.4 116.539 107.957C115.602 107.514 114.857 106.903 114.306 106.124C113.755 105.346 113.468 104.454 113.445 103.448H117.025C117.065 104.124 117.349 104.673 117.877 105.093C118.406 105.514 119.033 105.724 119.761 105.724C120.34 105.724 120.852 105.596 121.295 105.34C121.744 105.079 122.093 104.718 122.343 104.258C122.599 103.792 122.727 103.258 122.727 102.656C122.727 102.042 122.596 101.502 122.335 101.036C122.079 100.57 121.724 100.207 121.269 99.9454C120.815 99.6841 120.295 99.5505 119.71 99.5449C119.198 99.5449 118.701 99.65 118.218 99.8602C117.741 100.07 117.369 100.357 117.102 100.721L113.82 100.133L114.647 90.9284H125.318V93.9454H117.69L117.238 98.3176H117.34C117.647 97.8858 118.11 97.5278 118.729 97.2437C119.349 96.9596 120.042 96.8176 120.809 96.8176C121.86 96.8176 122.798 97.0648 123.622 97.5591C124.445 98.0534 125.096 98.7324 125.573 99.596C126.05 100.454 126.286 101.443 126.281 102.562C126.286 103.738 126.014 104.784 125.462 105.698C124.917 106.607 124.153 107.323 123.17 107.846C122.193 108.363 121.056 108.622 119.761 108.622ZM136.513 108.622C135.616 108.616 134.749 108.465 133.914 108.17C133.084 107.874 132.34 107.394 131.681 106.73C131.022 106.065 130.499 105.184 130.113 104.087C129.732 102.991 129.542 101.644 129.542 100.048C129.547 98.5818 129.715 97.2721 130.045 96.1187C130.38 94.9596 130.857 93.9767 131.476 93.1699C132.101 92.363 132.849 91.7494 133.718 91.329C134.587 90.9028 135.562 90.6898 136.641 90.6898C137.806 90.6898 138.834 90.917 139.726 91.3716C140.618 91.8204 141.334 92.4312 141.874 93.204C142.42 93.9767 142.749 94.8432 142.863 95.8034H139.224C139.082 95.1954 138.783 94.7182 138.329 94.3716C137.874 94.025 137.312 93.8517 136.641 93.8517C135.505 93.8517 134.641 94.346 134.05 95.3346C133.465 96.3233 133.167 97.667 133.155 99.3659H133.275C133.536 98.8488 133.888 98.4085 134.332 98.0449C134.78 97.6755 135.289 97.3943 135.857 97.2011C136.431 97.0023 137.036 96.9028 137.672 96.9028C138.707 96.9028 139.627 97.1471 140.434 97.6358C141.241 98.1187 141.877 98.7835 142.343 99.6301C142.809 100.477 143.042 101.445 143.042 102.536C143.042 103.718 142.766 104.769 142.215 105.69C141.67 106.61 140.905 107.332 139.922 107.855C138.945 108.372 137.809 108.627 136.513 108.622ZM136.496 105.724C137.064 105.724 137.573 105.587 138.022 105.315C138.471 105.042 138.823 104.673 139.079 104.207C139.334 103.741 139.462 103.218 139.462 102.639C139.462 102.059 139.334 101.539 139.079 101.079C138.829 100.619 138.482 100.252 138.039 99.9795C137.596 99.7068 137.09 99.5704 136.522 99.5704C136.096 99.5704 135.701 99.65 135.337 99.8091C134.979 99.9682 134.664 100.19 134.391 100.474C134.124 100.758 133.914 101.087 133.76 101.462C133.607 101.832 133.53 102.227 133.53 102.647C133.53 103.21 133.658 103.724 133.914 104.19C134.175 104.656 134.528 105.028 134.971 105.306C135.42 105.585 135.928 105.724 136.496 105.724ZM146.618 108.383V105.724L152.831 99.971C153.36 99.4596 153.803 98.9994 154.161 98.5903C154.524 98.1812 154.8 97.7807 154.988 97.3886C155.175 96.9909 155.269 96.5619 155.269 96.1017C155.269 95.5903 155.152 95.15 154.919 94.7807C154.686 94.4057 154.368 94.1187 153.965 93.9199C153.561 93.7153 153.104 93.613 152.593 93.613C152.059 93.613 151.593 93.721 151.195 93.9369C150.797 94.1528 150.49 94.4625 150.274 94.8659C150.059 95.2693 149.951 95.7494 149.951 96.3062H146.448C146.448 95.1642 146.706 94.1727 147.223 93.3318C147.74 92.4909 148.465 91.8403 149.397 91.3801C150.328 90.9199 151.402 90.6898 152.618 90.6898C153.868 90.6898 154.956 90.9113 155.882 91.3545C156.814 91.792 157.539 92.4 158.056 93.1784C158.573 93.9568 158.831 94.8488 158.831 95.8545C158.831 96.5136 158.701 97.1642 158.439 97.8062C158.184 98.4483 157.726 99.1613 157.067 99.9454C156.408 100.724 155.479 101.659 154.28 102.749L151.732 105.247V105.366H159.061V108.383H146.618ZM169.9 108.383L177.136 94.0648V93.9454H168.707V90.9284H180.954V93.988L173.71 108.383H169.9ZM185.603 108.383L192.838 94.0648V93.9454H184.409V90.9284H196.657V93.988L189.412 108.383H185.603ZM207.739 90.9284V108.383H204.049V94.4312H203.947L199.95 96.9369V93.6642L204.271 90.9284H207.739ZM219.692 108.766C218.226 108.761 216.964 108.4 215.908 107.684C214.856 106.968 214.047 105.931 213.479 104.573C212.916 103.215 212.638 101.582 212.643 99.6727C212.643 97.7693 212.925 96.1471 213.487 94.8062C214.055 93.4653 214.865 92.4454 215.916 91.7466C216.973 91.042 218.231 90.6898 219.692 90.6898C221.152 90.6898 222.408 91.042 223.459 91.7466C224.516 92.4511 225.328 93.4738 225.896 94.8148C226.464 96.15 226.746 97.7693 226.74 99.6727C226.74 101.587 226.456 103.224 225.888 104.582C225.325 105.94 224.518 106.977 223.467 107.693C222.416 108.409 221.158 108.766 219.692 108.766ZM219.692 105.707C220.692 105.707 221.49 105.204 222.087 104.198C222.683 103.193 222.979 101.684 222.973 99.6727C222.973 98.3488 222.837 97.2466 222.564 96.3659C222.297 95.4852 221.916 94.8233 221.422 94.3801C220.933 93.9369 220.356 93.7153 219.692 93.7153C218.697 93.7153 217.902 94.2125 217.305 95.2068C216.709 96.2011 216.408 97.6898 216.402 99.6727C216.402 101.014 216.535 102.133 216.802 103.031C217.075 103.923 217.459 104.593 217.953 105.042C218.447 105.485 219.027 105.707 219.692 105.707ZM243.298 108.622C242.025 108.622 240.891 108.403 239.897 107.965C238.909 107.522 238.127 106.914 237.553 106.141C236.985 105.363 236.693 104.465 236.676 103.448H240.391C240.414 103.874 240.553 104.249 240.809 104.573C241.07 104.891 241.417 105.139 241.849 105.315C242.281 105.491 242.766 105.579 243.306 105.579C243.869 105.579 244.366 105.48 244.798 105.281C245.23 105.082 245.568 104.806 245.812 104.454C246.056 104.102 246.178 103.695 246.178 103.235C246.178 102.769 246.048 102.357 245.786 101.999C245.531 101.636 245.161 101.352 244.678 101.147C244.201 100.943 243.633 100.84 242.974 100.84H241.346V98.1301H242.974C243.531 98.1301 244.022 98.0335 244.448 97.8403C244.88 97.6471 245.215 97.3801 245.454 97.0392C245.693 96.6926 245.812 96.2892 245.812 95.829C245.812 95.3915 245.707 95.0079 245.497 94.6784C245.292 94.3432 245.002 94.0818 244.627 93.8943C244.258 93.7068 243.826 93.613 243.332 93.613C242.832 93.613 242.374 93.704 241.96 93.8858C241.545 94.0619 241.212 94.3148 240.962 94.6443C240.712 94.9738 240.579 95.3602 240.562 95.8034H237.025C237.042 94.7977 237.329 93.9113 237.886 93.1443C238.443 92.3773 239.193 91.7778 240.136 91.346C241.085 90.9085 242.156 90.6898 243.349 90.6898C244.553 90.6898 245.607 90.9085 246.511 91.346C247.414 91.7835 248.116 92.3744 248.616 93.1187C249.122 93.8574 249.372 94.6869 249.366 95.6074C249.372 96.5846 249.068 97.4 248.454 98.0534C247.846 98.7068 247.053 99.1216 246.076 99.2977V99.4341C247.36 99.5988 248.337 100.045 249.008 100.772C249.684 101.494 250.019 102.397 250.014 103.482C250.019 104.477 249.732 105.36 249.153 106.133C248.579 106.906 247.786 107.514 246.775 107.957C245.764 108.4 244.605 108.622 243.298 108.622ZM260.001 108.622C258.797 108.622 257.723 108.4 256.78 107.957C255.842 107.514 255.098 106.903 254.547 106.124C253.996 105.346 253.709 104.454 253.686 103.448H257.266C257.305 104.124 257.589 104.673 258.118 105.093C258.646 105.514 259.274 105.724 260.001 105.724C260.581 105.724 261.092 105.596 261.535 105.34C261.984 105.079 262.334 104.718 262.584 104.258C262.839 103.792 262.967 103.258 262.967 102.656C262.967 102.042 262.837 101.502 262.575 101.036C262.32 100.57 261.964 100.207 261.51 99.9454C261.055 99.6841 260.535 99.5505 259.95 99.5449C259.439 99.5449 258.942 99.65 258.459 99.8602C257.981 100.07 257.609 100.357 257.342 100.721L254.061 100.133L254.888 90.9284H265.558V93.9454H257.93L257.479 98.3176H257.581C257.888 97.8858 258.351 97.5278 258.97 97.2437C259.589 96.9596 260.283 96.8176 261.05 96.8176C262.101 96.8176 263.038 97.0648 263.862 97.5591C264.686 98.0534 265.337 98.7324 265.814 99.596C266.291 100.454 266.527 101.443 266.521 102.562C266.527 103.738 266.254 104.784 265.703 105.698C265.158 106.607 264.393 107.323 263.41 107.846C262.433 108.363 261.297 108.622 260.001 108.622ZM276.899 108.766C275.433 108.761 274.172 108.4 273.115 107.684C272.064 106.968 271.254 105.931 270.686 104.573C270.123 103.215 269.845 101.582 269.851 99.6727C269.851 97.7693 270.132 96.1471 270.694 94.8062C271.262 93.4653 272.072 92.4454 273.123 91.7466C274.18 91.042 275.439 90.6898 276.899 90.6898C278.359 90.6898 279.615 91.042 280.666 91.7466C281.723 92.4511 282.535 93.4738 283.103 94.8148C283.672 96.15 283.953 97.7693 283.947 99.6727C283.947 101.587 283.663 103.224 283.095 104.582C282.532 105.94 281.726 106.977 280.674 107.693C279.623 108.409 278.365 108.766 276.899 108.766ZM276.899 105.707C277.899 105.707 278.697 105.204 279.294 104.198C279.89 103.193 280.186 101.684 280.18 99.6727C280.18 98.3488 280.044 97.2466 279.771 96.3659C279.504 95.4852 279.123 94.8233 278.629 94.3801C278.14 93.9369 277.564 93.7153 276.899 93.7153C275.905 93.7153 275.109 94.2125 274.512 95.2068C273.916 96.2011 273.615 97.6898 273.609 99.6727C273.609 101.014 273.743 102.133 274.01 103.031C274.282 103.923 274.666 104.593 275.16 105.042C275.655 105.485 276.234 105.707 276.899 105.707ZM287.76 108.383L294.996 94.0648V93.9454H286.567V90.9284H298.814V93.988L291.57 108.383H287.76Z" fill="#E8E8E8"/>
</g>
<path d="M28.6477 132.399V139.672H27.7955L23.8324 133.961H23.7614V139.672H22.8807V132.399H23.733L27.7102 138.123H27.7812V132.399H28.6477ZM32.5123 139.785C32.0198 139.785 31.5878 139.668 31.2161 139.434C30.8468 139.199 30.5579 138.871 30.3496 138.45C30.1436 138.029 30.0407 137.536 30.0407 136.973C30.0407 136.405 30.1436 135.909 30.3496 135.485C30.5579 135.061 30.8468 134.732 31.2161 134.498C31.5878 134.263 32.0198 134.146 32.5123 134.146C33.0047 134.146 33.4355 134.263 33.8049 134.498C34.1766 134.732 34.4654 135.061 34.6713 135.485C34.8797 135.909 34.9838 136.405 34.9838 136.973C34.9838 137.536 34.8797 138.029 34.6713 138.45C34.4654 138.871 34.1766 139.199 33.8049 139.434C33.4355 139.668 33.0047 139.785 32.5123 139.785ZM32.5123 139.032C32.8863 139.032 33.1941 138.937 33.4355 138.745C33.677 138.553 33.8558 138.301 33.9718 137.988C34.0878 137.676 34.1458 137.337 34.1458 136.973C34.1458 136.608 34.0878 136.268 33.9718 135.954C33.8558 135.639 33.677 135.384 33.4355 135.19C33.1941 134.996 32.8863 134.899 32.5123 134.899C32.1382 134.899 31.8304 134.996 31.589 135.19C31.3475 135.384 31.1687 135.639 31.0527 135.954C30.9367 136.268 30.8787 136.608 30.8787 136.973C30.8787 137.337 30.9367 137.676 31.0527 137.988C31.1687 138.301 31.3475 138.553 31.589 138.745C31.8304 138.937 32.1382 139.032 32.5123 139.032ZM36.2631 139.672V134.217H37.0728V135.069H37.1438C37.2575 134.778 37.4409 134.552 37.6942 134.391C37.9476 134.228 38.2518 134.146 38.6069 134.146C38.9667 134.146 39.2662 134.228 39.5053 134.391C39.7468 134.552 39.935 134.778 40.07 135.069H40.1268C40.2665 134.788 40.476 134.564 40.7553 134.398C41.0347 134.23 41.3697 134.146 41.7603 134.146C42.248 134.146 42.6469 134.299 42.957 134.604C43.2672 134.907 43.4222 135.379 43.4222 136.021V139.672H42.5842V136.021C42.5842 135.619 42.4741 135.331 42.2539 135.158C42.0337 134.985 41.7745 134.899 41.4762 134.899C41.0927 134.899 40.7956 135.015 40.5849 135.247C40.3742 135.477 40.2688 135.768 40.2688 136.12V139.672H39.4165V135.936C39.4165 135.626 39.3159 135.376 39.1147 135.187C38.9135 134.995 38.6542 134.899 38.337 134.899C38.1192 134.899 37.9156 134.957 37.7262 135.073C37.5392 135.189 37.3877 135.35 37.2717 135.556C37.158 135.759 37.1012 135.995 37.1012 136.263V139.672H36.2631ZM47.2415 139.785C46.7159 139.785 46.2625 139.669 45.8814 139.437C45.5026 139.203 45.2102 138.876 45.0043 138.457C44.8007 138.036 44.6989 137.546 44.6989 136.987C44.6989 136.428 44.8007 135.936 45.0043 135.51C45.2102 135.081 45.4967 134.747 45.8636 134.508C46.233 134.267 46.6638 134.146 47.1562 134.146C47.4403 134.146 47.7209 134.193 47.9979 134.288C48.2749 134.383 48.527 134.537 48.7543 134.75C48.9815 134.96 49.1626 135.24 49.2976 135.588C49.4325 135.936 49.5 136.364 49.5 136.873V137.228H45.2955V136.504H48.6477C48.6477 136.196 48.5862 135.922 48.4631 135.68C48.3423 135.439 48.1695 135.248 47.9446 135.108C47.7221 134.969 47.4593 134.899 47.1562 134.899C46.8224 134.899 46.5336 134.982 46.2898 135.147C46.0483 135.311 45.8625 135.524 45.7322 135.787C45.602 136.049 45.5369 136.331 45.5369 136.632V137.115C45.5369 137.527 45.608 137.876 45.75 138.162C45.8944 138.446 46.0945 138.663 46.3501 138.812C46.6058 138.959 46.9029 139.032 47.2415 139.032C47.4616 139.032 47.6605 139.002 47.8381 138.94C48.018 138.876 48.1731 138.781 48.3033 138.656C48.4335 138.528 48.5341 138.37 48.6051 138.18L49.4148 138.407C49.3295 138.682 49.1863 138.924 48.9851 139.132C48.7839 139.338 48.5353 139.499 48.2393 139.615C47.9434 139.728 47.6108 139.785 47.2415 139.785ZM55.647 139.785C55.1925 139.785 54.7912 139.67 54.4432 139.441C54.0952 139.209 53.8229 138.882 53.6264 138.461C53.4299 138.037 53.3317 137.536 53.3317 136.959C53.3317 136.386 53.4299 135.888 53.6264 135.467C53.8229 135.046 54.0964 134.72 54.4467 134.491C54.7971 134.261 55.2019 134.146 55.6612 134.146C56.0163 134.146 56.2969 134.205 56.5028 134.324C56.7112 134.44 56.8698 134.572 56.9787 134.721C57.09 134.868 57.1764 134.989 57.2379 135.084H57.3089V132.399H58.147V139.672H57.3374V138.834H57.2379C57.1764 138.933 57.0888 139.058 56.9751 139.21C56.8615 139.359 56.6993 139.493 56.4886 139.611C56.2779 139.727 55.9974 139.785 55.647 139.785ZM55.7607 139.032C56.0968 139.032 56.3809 138.945 56.6129 138.77C56.8449 138.592 57.0213 138.347 57.142 138.035C57.2628 137.72 57.3232 137.356 57.3232 136.944C57.3232 136.537 57.264 136.181 57.1456 135.875C57.0272 135.568 56.852 135.329 56.62 135.158C56.388 134.985 56.1016 134.899 55.7607 134.899C55.4055 134.899 55.1096 134.99 54.8729 135.172C54.6385 135.352 54.4621 135.597 54.3438 135.907C54.2277 136.215 54.1697 136.561 54.1697 136.944C54.1697 137.333 54.2289 137.685 54.3473 138.003C54.468 138.317 54.6456 138.568 54.88 138.755C55.1167 138.94 55.4103 139.032 55.7607 139.032ZM62.0142 139.785C61.5218 139.785 61.0897 139.668 60.718 139.434C60.3487 139.199 60.0599 138.871 59.8516 138.45C59.6456 138.029 59.5426 137.536 59.5426 136.973C59.5426 136.405 59.6456 135.909 59.8516 135.485C60.0599 135.061 60.3487 134.732 60.718 134.498C61.0897 134.263 61.5218 134.146 62.0142 134.146C62.5066 134.146 62.9375 134.263 63.3068 134.498C63.6785 134.732 63.9673 135.061 64.1733 135.485C64.3816 135.909 64.4858 136.405 64.4858 136.973C64.4858 137.536 64.3816 138.029 64.1733 138.45C63.9673 138.871 63.6785 139.199 63.3068 139.434C62.9375 139.668 62.5066 139.785 62.0142 139.785ZM62.0142 139.032C62.3883 139.032 62.696 138.937 62.9375 138.745C63.179 138.553 63.3577 138.301 63.4737 137.988C63.5897 137.676 63.6477 137.337 63.6477 136.973C63.6477 136.608 63.5897 136.268 63.4737 135.954C63.3577 135.639 63.179 135.384 62.9375 135.19C62.696 134.996 62.3883 134.899 62.0142 134.899C61.6402 134.899 61.3324 134.996 61.0909 135.19C60.8494 135.384 60.6707 135.639 60.5547 135.954C60.4387 136.268 60.3807 136.608 60.3807 136.973C60.3807 137.337 60.4387 137.676 60.5547 137.988C60.6707 138.301 60.8494 138.553 61.0909 138.745C61.3324 138.937 61.6402 139.032 62.0142 139.032ZM70.9498 134.217V134.927H68.123V134.217H70.9498ZM68.9469 132.91H69.785V138.109C69.785 138.346 69.8193 138.523 69.888 138.642C69.959 138.758 70.0489 138.836 70.1578 138.876C70.2691 138.914 70.3863 138.933 70.5094 138.933C70.6017 138.933 70.6775 138.928 70.7367 138.919C70.7959 138.907 70.8432 138.897 70.8787 138.89L71.0492 139.643C70.9924 139.665 70.9131 139.686 70.8113 139.707C70.7095 139.731 70.5804 139.743 70.4242 139.743C70.1874 139.743 69.9554 139.692 69.7282 139.59C69.5033 139.488 69.3162 139.333 69.1671 139.125C69.0203 138.916 68.9469 138.654 68.9469 138.336V132.91ZM72.2104 139.672V134.217H73.0485V139.672H72.2104ZM72.6365 133.308C72.4732 133.308 72.3323 133.252 72.214 133.141C72.098 133.03 72.04 132.896 72.04 132.74C72.04 132.584 72.098 132.45 72.214 132.339C72.3323 132.227 72.4732 132.172 72.6365 132.172C72.7999 132.172 72.9396 132.227 73.0556 132.339C73.1739 132.45 73.2331 132.584 73.2331 132.74C73.2331 132.896 73.1739 133.03 73.0556 133.141C72.9396 133.252 72.7999 133.308 72.6365 133.308ZM76.9556 134.217V134.927H74.1289V134.217H76.9556ZM74.9528 132.91H75.7908V138.109C75.7908 138.346 75.8252 138.523 75.8938 138.642C75.9648 138.758 76.0548 138.836 76.1637 138.876C76.275 138.914 76.3922 138.933 76.5153 138.933C76.6076 138.933 76.6834 138.928 76.7425 138.919C76.8017 138.907 76.8491 138.897 76.8846 138.89L77.055 139.643C76.9982 139.665 76.9189 139.686 76.8171 139.707C76.7153 139.731 76.5863 139.743 76.43 139.743C76.1933 139.743 75.9613 139.692 75.734 139.59C75.5091 139.488 75.3221 139.333 75.1729 139.125C75.0262 138.916 74.9528 138.654 74.9528 138.336V132.91ZM81.6538 137.442V134.217H82.4918V139.672H81.6538V138.748H81.5969C81.4691 139.025 81.2702 139.261 81.0004 139.455C80.7305 139.647 80.3896 139.743 79.9776 139.743C79.6367 139.743 79.3337 139.668 79.0685 139.519C78.8034 139.367 78.5951 139.14 78.4435 138.837C78.292 138.532 78.2163 138.147 78.2163 137.683V134.217H79.0543V137.626C79.0543 138.024 79.1656 138.341 79.3881 138.578C79.613 138.815 79.8995 138.933 80.2475 138.933C80.4558 138.933 80.6677 138.88 80.8832 138.773C81.101 138.667 81.2833 138.503 81.43 138.283C81.5792 138.063 81.6538 137.782 81.6538 137.442ZM84.8649 132.399V139.672H84.0268V132.399H84.8649ZM88.005 139.799C87.6593 139.799 87.3456 139.734 87.0639 139.604C86.7822 139.472 86.5585 139.281 86.3928 139.032C86.227 138.781 86.1442 138.478 86.1442 138.123C86.1442 137.811 86.2057 137.558 86.3288 137.363C86.4519 137.167 86.6165 137.013 86.8224 136.902C87.0284 136.79 87.2557 136.708 87.5043 136.653C87.7552 136.596 88.0073 136.551 88.2607 136.518C88.5921 136.476 88.8608 136.444 89.0668 136.422C89.2751 136.399 89.4266 136.36 89.5213 136.305C89.6184 136.251 89.6669 136.156 89.6669 136.021V135.993C89.6669 135.642 89.571 135.37 89.3793 135.176C89.1899 134.982 88.9022 134.885 88.5163 134.885C88.1162 134.885 87.8026 134.972 87.5753 135.147C87.348 135.323 87.1882 135.51 87.0959 135.709L86.3004 135.424C86.4425 135.093 86.6319 134.835 86.8686 134.65C87.1077 134.463 87.3681 134.333 87.6499 134.26C87.9339 134.184 88.2133 134.146 88.4879 134.146C88.6631 134.146 88.8643 134.167 89.0916 134.21C89.3213 134.25 89.5426 134.334 89.7557 134.462C89.9711 134.59 90.1499 134.783 90.2919 135.041C90.4339 135.299 90.505 135.645 90.505 136.078V139.672H89.6669V138.933H89.6243C89.5675 139.051 89.4728 139.178 89.3402 139.313C89.2076 139.448 89.0313 139.563 88.8111 139.657C88.5909 139.752 88.3222 139.799 88.005 139.799ZM88.1328 139.047C88.4643 139.047 88.7436 138.982 88.9709 138.851C89.2005 138.721 89.3733 138.553 89.4893 138.347C89.6077 138.141 89.6669 137.924 89.6669 137.697V136.93C89.6314 136.973 89.5533 137.012 89.4325 137.047C89.3142 137.08 89.1768 137.11 89.0206 137.136C88.8667 137.16 88.7164 137.181 88.5696 137.2C88.4252 137.217 88.308 137.231 88.218 137.243C88.0002 137.271 87.7966 137.317 87.6072 137.381C87.4202 137.443 87.2687 137.536 87.1527 137.662C87.0391 137.785 86.9822 137.953 86.9822 138.166C86.9822 138.457 87.09 138.677 87.3054 138.826C87.5232 138.973 87.799 139.047 88.1328 139.047ZM92.0346 139.672V134.217H92.8443V135.041H92.9011C93.0005 134.771 93.1805 134.552 93.4409 134.384C93.7013 134.216 93.9949 134.132 94.3216 134.132C94.3831 134.132 94.46 134.133 94.5524 134.135C94.6447 134.138 94.7145 134.141 94.7619 134.146V134.998C94.7335 134.991 94.6684 134.981 94.5666 134.966C94.4672 134.95 94.3618 134.942 94.2505 134.942C93.9854 134.942 93.7486 134.997 93.5403 135.108C93.3343 135.217 93.171 135.369 93.0502 135.563C92.9319 135.755 92.8727 135.974 92.8727 136.22V139.672H92.0346Z" fill="white"/>
<g filter="url(#filter4_di_904_199)">
<path d="M22.8849 149.49H25.5398L28.3438 156.331H28.4631L31.267 149.49H33.9219V159.672H31.8338V153.044H31.7493L29.1143 159.622H27.6925L25.0575 153.02H24.973V159.672H22.8849V149.49ZM37.4505 159.672H35.1436L38.6586 149.49H41.4327L44.9426 159.672H42.6358L40.0854 151.817H40.0059L37.4505 159.672ZM37.3063 155.669H42.7551V157.35H37.3063V155.669ZM44.5325 149.49H46.9437L49.2654 153.875H49.3649L51.6866 149.49H54.0978L50.3841 156.072V159.672H48.2463V156.072L44.5325 149.49ZM55.2736 159.672V149.49H57.4263V153.979H57.5605L61.2246 149.49H63.8049L60.0265 154.049L63.8496 159.672H61.2743L58.4853 155.486L57.4263 156.778V159.672H55.2736ZM68.1662 159.672V149.49H72.2429C72.992 149.49 73.6167 149.601 74.1172 149.823C74.6177 150.045 74.9938 150.353 75.2457 150.748C75.4976 151.139 75.6236 151.589 75.6236 152.1C75.6236 152.498 75.544 152.847 75.3849 153.149C75.2259 153.447 75.0071 153.692 74.7287 153.885C74.4536 154.074 74.1387 154.208 73.7841 154.287V154.387C74.1719 154.403 74.5348 154.513 74.8729 154.715C75.2143 154.917 75.491 155.201 75.7031 155.565C75.9152 155.926 76.0213 156.357 76.0213 156.858C76.0213 157.398 75.8871 157.88 75.6186 158.304C75.3535 158.725 74.9607 159.058 74.4403 159.304C73.92 159.549 73.2786 159.672 72.5163 159.672H68.1662ZM70.3189 157.912H72.0739C72.6738 157.912 73.1113 157.797 73.3864 157.569C73.6615 157.337 73.799 157.028 73.799 156.644C73.799 156.362 73.7311 156.114 73.5952 155.898C73.4593 155.683 73.2654 155.514 73.0135 155.391C72.7649 155.268 72.4683 155.207 72.1236 155.207H70.3189V157.912ZM70.3189 153.75H71.9148C72.2098 153.75 72.4716 153.699 72.7003 153.596C72.9323 153.49 73.1146 153.341 73.2472 153.149C73.383 152.957 73.451 152.726 73.451 152.458C73.451 152.09 73.3201 151.793 73.0582 151.568C72.7997 151.343 72.4318 151.23 71.9545 151.23H70.3189V153.75ZM77.4221 159.672V149.49H81.4391C82.208 149.49 82.8643 149.627 83.4078 149.902C83.9547 150.174 84.3707 150.56 84.6557 151.061C84.9441 151.558 85.0882 152.143 85.0882 152.816C85.0882 153.492 84.9424 154.074 84.6507 154.561C84.3591 155.045 83.9365 155.416 83.383 155.674C82.8328 155.933 82.1666 156.062 81.3844 156.062H78.6948V154.332H81.0364C81.4474 154.332 81.7888 154.276 82.0605 154.163C82.3323 154.05 82.5345 153.881 82.6671 153.656C82.803 153.431 82.8709 153.151 82.8709 152.816C82.8709 152.478 82.803 152.193 82.6671 151.961C82.5345 151.729 82.3307 151.553 82.0556 151.434C81.7838 151.311 81.4408 151.25 81.0265 151.25H79.5748V159.672H77.4221ZM82.9206 155.038L85.4512 159.672H83.0748L80.5989 155.038H82.9206ZM88.7623 149.49V159.672H86.6096V149.49H88.7623ZM90.1456 151.265V149.49H98.5078V151.265H95.3906V159.672H93.2628V151.265H90.1456ZM108.777 154.581C108.777 155.691 108.566 156.636 108.145 157.415C107.728 158.193 107.158 158.788 106.435 159.199C105.716 159.607 104.907 159.811 104.009 159.811C103.104 159.811 102.292 159.605 101.573 159.194C100.854 158.783 100.285 158.188 99.8675 157.41C99.4499 156.631 99.2411 155.688 99.2411 154.581C99.2411 153.47 99.4499 152.526 99.8675 151.747C100.285 150.968 100.854 150.375 101.573 149.967C102.292 149.556 103.104 149.351 104.009 149.351C104.907 149.351 105.716 149.556 106.435 149.967C107.158 150.375 107.728 150.968 108.145 151.747C108.566 152.526 108.777 153.47 108.777 154.581ZM106.594 154.581C106.594 153.861 106.486 153.255 106.271 152.761C106.059 152.267 105.759 151.893 105.371 151.638C104.983 151.382 104.529 151.255 104.009 151.255C103.489 151.255 103.034 151.382 102.647 151.638C102.259 151.893 101.957 152.267 101.742 152.761C101.53 153.255 101.424 153.861 101.424 154.581C101.424 155.3 101.53 155.906 101.742 156.4C101.957 156.894 102.259 157.269 102.647 157.524C103.034 157.779 103.489 157.907 104.009 157.907C104.529 157.907 104.983 157.779 105.371 157.524C105.759 157.269 106.059 156.894 106.271 156.4C106.486 155.906 106.594 155.3 106.594 154.581Z" fill="white"/>
</g>
<path d="M22.8807 186.672V179.399H27.2699V180.18H23.7614V182.638H27.0426V183.419H23.7614V185.89H27.3267V186.672H22.8807ZM29.3686 181.217L30.6754 183.447L31.9822 181.217H32.9482L31.1868 183.944L32.9482 186.672H31.9822L30.6754 184.555L29.3686 186.672H28.4027L30.1357 183.944L28.4027 181.217H29.3686ZM34.144 188.717V181.217H34.9537V182.084H35.0531C35.1146 181.989 35.1999 181.868 35.3088 181.721C35.42 181.572 35.5787 181.44 35.7846 181.324C35.993 181.205 36.2747 181.146 36.6298 181.146C37.0891 181.146 37.4939 181.261 37.8443 181.491C38.1947 181.72 38.4681 182.046 38.6646 182.467C38.8611 182.888 38.9593 183.386 38.9593 183.959C38.9593 184.536 38.8611 185.037 38.6646 185.461C38.4681 185.882 38.1958 186.209 37.8478 186.441C37.4998 186.67 37.0985 186.785 36.644 186.785C36.2936 186.785 36.0131 186.727 35.8024 186.611C35.5917 186.493 35.4295 186.359 35.3159 186.21C35.2022 186.058 35.1146 185.933 35.0531 185.834H34.9821V188.717H34.144ZM34.9679 183.944C34.9679 184.356 35.0282 184.72 35.149 185.035C35.2697 185.347 35.4461 185.592 35.6781 185.77C35.9101 185.945 36.1942 186.032 36.5304 186.032C36.8807 186.032 37.1731 185.94 37.4075 185.755C37.6442 185.568 37.8218 185.317 37.9402 185.003C38.0609 184.685 38.1213 184.333 38.1213 183.944C38.1213 183.561 38.0621 183.215 37.9437 182.907C37.8277 182.597 37.6513 182.352 37.4146 182.172C37.1802 181.99 36.8855 181.899 36.5304 181.899C36.1895 181.899 35.903 181.985 35.671 182.158C35.439 182.329 35.2638 182.568 35.1454 182.875C35.027 183.181 34.9679 183.537 34.9679 183.944ZM40.2377 186.672V181.217H41.0758V186.672H40.2377ZM40.6639 180.308C40.5005 180.308 40.3597 180.252 40.2413 180.141C40.1253 180.03 40.0673 179.896 40.0673 179.74C40.0673 179.584 40.1253 179.45 40.2413 179.339C40.3597 179.227 40.5005 179.172 40.6639 179.172C40.8272 179.172 40.9669 179.227 41.0829 179.339C41.2013 179.45 41.2605 179.584 41.2605 179.74C41.2605 179.896 41.2013 180.03 41.0829 180.141C40.9669 180.252 40.8272 180.308 40.6639 180.308ZM42.6108 186.672V181.217H43.4205V182.041H43.4773C43.5767 181.771 43.7566 181.552 44.017 181.384C44.2775 181.216 44.571 181.132 44.8977 181.132C44.9593 181.132 45.0362 181.133 45.1286 181.135C45.2209 181.138 45.2907 181.141 45.3381 181.146V181.998C45.3097 181.991 45.2446 181.981 45.1428 181.966C45.0433 181.95 44.938 181.942 44.8267 181.942C44.5616 181.942 44.3248 181.997 44.1165 182.108C43.9105 182.217 43.7472 182.369 43.6264 182.563C43.508 182.755 43.4489 182.974 43.4489 183.22V186.672H42.6108ZM47.9366 186.799C47.591 186.799 47.2773 186.734 46.9956 186.604C46.7138 186.472 46.4901 186.281 46.3244 186.032C46.1587 185.781 46.0758 185.478 46.0758 185.123C46.0758 184.811 46.1374 184.558 46.2605 184.363C46.3836 184.167 46.5481 184.013 46.7541 183.902C46.96 183.79 47.1873 183.708 47.4359 183.653C47.6868 183.596 47.939 183.551 48.1923 183.518C48.5237 183.476 48.7924 183.444 48.9984 183.422C49.2067 183.399 49.3583 183.36 49.4529 183.305C49.55 183.251 49.5985 183.156 49.5985 183.021V182.993C49.5985 182.642 49.5027 182.37 49.3109 182.176C49.1215 181.982 48.8339 181.885 48.448 181.885C48.0479 181.885 47.7342 181.972 47.5069 182.147C47.2797 182.323 47.1199 182.51 47.0275 182.709L46.2321 182.424C46.3741 182.093 46.5635 181.835 46.8002 181.65C47.0394 181.463 47.2998 181.333 47.5815 181.26C47.8656 181.184 48.1449 181.146 48.4196 181.146C48.5948 181.146 48.796 181.167 49.0233 181.21C49.2529 181.25 49.4743 181.334 49.6873 181.462C49.9028 181.59 50.0815 181.783 50.2235 182.041C50.3656 182.299 50.4366 182.645 50.4366 183.078V186.672H49.5985V185.933H49.5559C49.4991 186.051 49.4044 186.178 49.2718 186.313C49.1393 186.448 48.9629 186.563 48.7427 186.657C48.5225 186.752 48.2538 186.799 47.9366 186.799ZM48.0645 186.047C48.3959 186.047 48.6752 185.982 48.9025 185.851C49.1322 185.721 49.305 185.553 49.421 185.347C49.5394 185.141 49.5985 184.924 49.5985 184.697V183.93C49.563 183.973 49.4849 184.012 49.3642 184.047C49.2458 184.08 49.1085 184.11 48.9522 184.136C48.7984 184.16 48.648 184.181 48.5012 184.2C48.3568 184.217 48.2396 184.231 48.1497 184.243C47.9319 184.271 47.7283 184.317 47.5389 184.381C47.3519 184.443 47.2003 184.536 47.0843 184.662C46.9707 184.785 46.9139 184.953 46.9139 185.166C46.9139 185.457 47.0216 185.677 47.237 185.826C47.4548 185.973 47.7306 186.047 48.0645 186.047ZM54.1822 186.785C53.6708 186.785 53.2305 186.665 52.8612 186.423C52.4918 186.182 52.2077 185.849 52.0089 185.425C51.81 185.001 51.7106 184.517 51.7106 183.973C51.7106 183.419 51.8124 182.93 52.016 182.506C52.2219 182.08 52.5084 181.747 52.8754 181.508C53.2447 181.267 53.6755 181.146 54.168 181.146C54.5515 181.146 54.8971 181.217 55.2049 181.359C55.5127 181.501 55.7648 181.7 55.9613 181.956C56.1578 182.211 56.2797 182.51 56.3271 182.851H55.489C55.4251 182.602 55.283 182.382 55.0629 182.19C54.8451 181.996 54.5515 181.899 54.1822 181.899C53.8555 181.899 53.569 181.984 53.3228 182.155C53.079 182.323 52.8884 182.561 52.7511 182.868C52.6161 183.174 52.5487 183.532 52.5487 183.944C52.5487 184.366 52.6149 184.733 52.7475 185.045C52.8825 185.358 53.0719 185.6 53.3157 185.773C53.5619 185.946 53.8507 186.032 54.1822 186.032C54.4 186.032 54.5977 185.995 54.7752 185.919C54.9528 185.843 55.1031 185.734 55.2262 185.592C55.3493 185.45 55.4369 185.28 55.489 185.081H56.3271C56.2797 185.403 56.1625 185.693 55.9755 185.951C55.7908 186.206 55.5458 186.41 55.2404 186.562C54.9374 186.711 54.5846 186.785 54.1822 186.785ZM53.7844 186.643H54.4805L54.4237 186.927C54.6083 186.956 54.7776 187.033 54.9315 187.158C55.0853 187.286 55.1623 187.488 55.1623 187.765C55.1623 188.071 55.0356 188.319 54.7823 188.511C54.5314 188.705 54.1609 188.802 53.6708 188.802L53.6424 188.248C53.8626 188.248 54.0449 188.213 54.1893 188.142C54.3361 188.073 54.4094 187.957 54.4094 187.794C54.4094 187.63 54.3491 187.519 54.2283 187.46C54.1076 187.401 53.9123 187.361 53.6424 187.339L53.7844 186.643ZM59.1573 186.799C58.8117 186.799 58.498 186.734 58.2163 186.604C57.9345 186.472 57.7108 186.281 57.5451 186.032C57.3794 185.781 57.2965 185.478 57.2965 185.123C57.2965 184.811 57.3581 184.558 57.4812 184.363C57.6043 184.167 57.7688 184.013 57.9748 183.902C58.1808 183.79 58.408 183.708 58.6566 183.653C58.9076 183.596 59.1597 183.551 59.413 183.518C59.7444 183.476 60.0131 183.444 60.2191 183.422C60.4274 183.399 60.579 183.36 60.6737 183.305C60.7707 183.251 60.8192 183.156 60.8192 183.021V182.993C60.8192 182.642 60.7234 182.37 60.5316 182.176C60.3422 181.982 60.0546 181.885 59.6687 181.885C59.2686 181.885 58.9549 181.972 58.7276 182.147C58.5004 182.323 58.3406 182.51 58.2482 182.709L57.4528 182.424C57.5948 182.093 57.7842 181.835 58.021 181.65C58.2601 181.463 58.5205 181.333 58.8022 181.26C59.0863 181.184 59.3656 181.146 59.6403 181.146C59.8155 181.146 60.0167 181.167 60.244 181.21C60.4736 181.25 60.695 181.334 60.908 181.462C61.1235 181.59 61.3022 181.783 61.4442 182.041C61.5863 182.299 61.6573 182.645 61.6573 183.078V186.672H60.8192V185.933H60.7766C60.7198 186.051 60.6251 186.178 60.4925 186.313C60.36 186.448 60.1836 186.563 59.9634 186.657C59.7433 186.752 59.4746 186.799 59.1573 186.799ZM59.2852 186.047C59.6166 186.047 59.896 185.982 60.1232 185.851C60.3529 185.721 60.5257 185.553 60.6417 185.347C60.7601 185.141 60.8192 184.924 60.8192 184.697V183.93C60.7837 183.973 60.7056 184.012 60.5849 184.047C60.4665 184.08 60.3292 184.11 60.1729 184.136C60.0191 184.16 59.8687 184.181 59.7219 184.2C59.5775 184.217 59.4603 184.231 59.3704 184.243C59.1526 184.271 58.949 184.317 58.7596 184.381C58.5726 184.443 58.421 184.536 58.305 184.662C58.1914 184.785 58.1346 184.953 58.1346 185.166C58.1346 185.457 58.2423 185.677 58.4577 185.826C58.6755 185.973 58.9513 186.047 59.2852 186.047ZM58.6033 180.564L57.9499 180.535C57.9499 180.173 58.0529 179.877 58.2589 179.647C58.4672 179.415 58.7241 179.299 59.0295 179.299C59.1644 179.299 59.284 179.323 59.3881 179.37C59.4923 179.415 59.5917 179.468 59.6864 179.527C59.7811 179.586 59.8782 179.639 59.9776 179.687C60.0794 179.732 60.1942 179.754 60.3221 179.754C60.457 179.754 60.5707 179.702 60.663 179.598C60.7577 179.491 60.805 179.363 60.805 179.214L61.4442 179.271C61.4442 179.64 61.3401 179.934 61.1317 180.152C60.9258 180.37 60.6701 180.478 60.3647 180.478C60.2013 180.478 60.0664 180.456 59.9599 180.411C59.8533 180.364 59.7586 180.31 59.6758 180.251C59.5929 180.192 59.5053 180.14 59.413 180.095C59.3207 180.048 59.207 180.024 59.0721 180.024C58.9371 180.024 58.8247 180.077 58.7347 180.184C58.6471 180.288 58.6033 180.415 58.6033 180.564ZM65.4029 186.785C64.9105 186.785 64.4784 186.668 64.1067 186.434C63.7374 186.199 63.4486 185.871 63.2402 185.45C63.0343 185.029 62.9313 184.536 62.9313 183.973C62.9313 183.405 63.0343 182.909 63.2402 182.485C63.4486 182.061 63.7374 181.732 64.1067 181.498C64.4784 181.263 64.9105 181.146 65.4029 181.146C65.8953 181.146 66.3262 181.263 66.6955 181.498C67.0672 181.732 67.356 182.061 67.562 182.485C67.7703 182.909 67.8745 183.405 67.8745 183.973C67.8745 184.536 67.7703 185.029 67.562 185.45C67.356 185.871 67.0672 186.199 66.6955 186.434C66.3262 186.668 65.8953 186.785 65.4029 186.785ZM65.4029 186.032C65.7769 186.032 66.0847 185.937 66.3262 185.745C66.5676 185.553 66.7464 185.301 66.8624 184.988C66.9784 184.676 67.0364 184.337 67.0364 183.973C67.0364 183.608 66.9784 183.268 66.8624 182.954C66.7464 182.639 66.5676 182.384 66.3262 182.19C66.0847 181.996 65.7769 181.899 65.4029 181.899C65.0288 181.899 64.7211 181.996 64.4796 182.19C64.2381 182.384 64.0594 182.639 63.9434 182.954C63.8274 183.268 63.7694 183.608 63.7694 183.973C63.7694 184.337 63.8274 184.676 63.9434 184.988C64.0594 185.301 64.2381 185.553 64.4796 185.745C64.7211 185.937 65.0288 186.032 65.4029 186.032Z" fill="white"/>
<g filter="url(#filter5_di_904_199)">
<path d="M26.8175 206.895C25.9624 206.892 25.2266 206.682 24.6101 206.264C23.9969 205.846 23.5246 205.241 23.1932 204.449C22.8651 203.657 22.7027 202.704 22.706 201.591C22.706 200.48 22.87 199.534 23.1982 198.752C23.5296 197.97 24.0019 197.375 24.6151 196.967C25.2315 196.556 25.9657 196.351 26.8175 196.351C27.6693 196.351 28.4018 196.556 29.0149 196.967C29.6314 197.378 30.1054 197.975 30.4368 198.757C30.7682 199.536 30.9323 200.48 30.929 201.591C30.929 202.708 30.7633 203.662 30.4318 204.454C30.1037 205.246 29.633 205.851 29.0199 206.269C28.4067 206.687 27.6726 206.895 26.8175 206.895ZM26.8175 205.111C27.4008 205.111 27.8665 204.817 28.2145 204.231C28.5625 203.644 28.7348 202.764 28.7315 201.591C28.7315 200.818 28.652 200.175 28.4929 199.662C28.3371 199.148 28.1151 198.762 27.8267 198.503C27.5417 198.245 27.2053 198.116 26.8175 198.116C26.2375 198.116 25.7734 198.406 25.4254 198.986C25.0774 199.566 24.9018 200.434 24.8984 201.591C24.8984 202.373 24.9763 203.026 25.1321 203.549C25.2912 204.07 25.5149 204.461 25.8033 204.723C26.0916 204.981 26.4297 205.111 26.8175 205.111ZM32.464 206.672V205.12L36.0882 201.765C36.3965 201.466 36.655 201.198 36.8638 200.959C37.0759 200.721 37.2367 200.487 37.3461 200.258C37.4554 200.026 37.5101 199.776 37.5101 199.508C37.5101 199.209 37.4422 198.952 37.3063 198.737C37.1704 198.518 36.9848 198.351 36.7495 198.235C36.5141 198.116 36.2473 198.056 35.949 198.056C35.6375 198.056 35.3657 198.119 35.1337 198.245C34.9017 198.371 34.7227 198.551 34.5968 198.787C34.4708 199.022 34.4078 199.302 34.4078 199.627H32.3645C32.3645 198.961 32.5153 198.382 32.8169 197.892C33.1185 197.401 33.5411 197.022 34.0847 196.753C34.6283 196.485 35.2547 196.351 35.964 196.351C36.6931 196.351 37.3278 196.48 37.8681 196.738C38.4116 196.994 38.8342 197.348 39.1358 197.802C39.4374 198.256 39.5882 198.777 39.5882 199.363C39.5882 199.748 39.512 200.127 39.3596 200.502C39.2104 200.876 38.9436 201.292 38.5591 201.75C38.1747 202.204 37.6328 202.749 36.9334 203.385L35.4469 204.842V204.912H39.7225V206.672H32.464ZM45.7369 196.013L42.4556 208.203H40.631L43.9123 196.013H45.7369ZM50.5009 206.811C49.7585 206.811 49.0972 206.683 48.5172 206.428C47.9405 206.17 47.4848 205.815 47.15 205.364C46.8186 204.91 46.6479 204.386 46.638 203.793H48.8056C48.8188 204.042 48.9 204.26 49.0492 204.449C49.2016 204.635 49.4038 204.779 49.6557 204.882C49.9076 204.985 50.191 205.036 50.5059 205.036C50.834 205.036 51.124 204.978 51.3759 204.862C51.6278 204.746 51.825 204.585 51.9675 204.38C52.11 204.174 52.1813 203.937 52.1813 203.669C52.1813 203.397 52.1051 203.157 51.9526 202.948C51.8034 202.736 51.588 202.57 51.3063 202.451C51.0279 202.331 50.6964 202.272 50.312 202.272H49.3624V200.691H50.312C50.6368 200.691 50.9235 200.634 51.1721 200.522C51.4239 200.409 51.6195 200.253 51.7587 200.054C51.8979 199.852 51.9675 199.617 51.9675 199.348C51.9675 199.093 51.9062 198.87 51.7836 198.677C51.6642 198.482 51.4952 198.329 51.2765 198.22C51.061 198.111 50.8091 198.056 50.5208 198.056C50.2291 198.056 49.9623 198.109 49.7203 198.215C49.4784 198.318 49.2845 198.465 49.1387 198.657C48.9928 198.85 48.915 199.075 48.905 199.334H46.8418C46.8517 198.747 47.0191 198.23 47.3439 197.782C47.6687 197.335 48.1062 196.985 48.6564 196.733C49.2099 196.478 49.8347 196.351 50.5307 196.351C51.2334 196.351 51.8482 196.478 52.3752 196.733C52.9022 196.989 53.3115 197.333 53.6032 197.768C53.8981 198.198 54.044 198.682 54.0407 199.219C54.044 199.789 53.8667 200.265 53.5087 200.646C53.1541 201.027 52.6917 201.269 52.1216 201.372V201.451C52.8707 201.548 53.4408 201.808 53.8319 202.232C54.2263 202.653 54.4218 203.18 54.4185 203.813C54.4218 204.393 54.2544 204.908 53.9164 205.359C53.5816 205.81 53.1193 206.165 52.5293 206.423C51.9393 206.682 51.2632 206.811 50.5009 206.811ZM59.9581 206.895C59.103 206.892 58.3672 206.682 57.7507 206.264C57.1375 205.846 56.6652 205.241 56.3338 204.449C56.0057 203.657 55.8433 202.704 55.8466 201.591C55.8466 200.48 56.0107 199.534 56.3388 198.752C56.6702 197.97 57.1425 197.375 57.7557 196.967C58.3722 196.556 59.1063 196.351 59.9581 196.351C60.8099 196.351 61.5424 196.556 62.1555 196.967C62.772 197.378 63.246 197.975 63.5774 198.757C63.9089 199.536 64.0729 200.48 64.0696 201.591C64.0696 202.708 63.9039 203.662 63.5724 204.454C63.2443 205.246 62.7737 205.851 62.1605 206.269C61.5473 206.687 60.8132 206.895 59.9581 206.895ZM59.9581 205.111C60.5414 205.111 61.0071 204.817 61.3551 204.231C61.7031 203.644 61.8755 202.764 61.8722 201.591C61.8722 200.818 61.7926 200.175 61.6335 199.662C61.4777 199.148 61.2557 198.762 60.9673 198.503C60.6823 198.245 60.3459 198.116 59.9581 198.116C59.3781 198.116 58.9141 198.406 58.5661 198.986C58.218 199.566 58.0424 200.434 58.0391 201.591C58.0391 202.373 58.117 203.026 58.2727 203.549C58.4318 204.07 58.6555 204.461 58.9439 204.723C59.2322 204.981 59.5703 205.111 59.9581 205.111Z" fill="white"/>
</g>
<path d="M179.623 181.672H178.743C178.691 181.418 178.599 181.196 178.469 181.004C178.341 180.812 178.185 180.651 178 180.521C177.818 180.388 177.616 180.289 177.393 180.223C177.171 180.156 176.939 180.123 176.697 180.123C176.257 180.123 175.858 180.235 175.5 180.457C175.145 180.68 174.862 181.008 174.652 181.441C174.443 181.874 174.339 182.406 174.339 183.035C174.339 183.665 174.443 184.196 174.652 184.63C174.862 185.063 175.145 185.391 175.5 185.613C175.858 185.836 176.257 185.947 176.697 185.947C176.939 185.947 177.171 185.914 177.393 185.848C177.616 185.781 177.818 185.683 178 185.553C178.185 185.42 178.341 185.258 178.469 185.067C178.599 184.872 178.691 184.65 178.743 184.399H179.623C179.557 184.771 179.436 185.103 179.261 185.397C179.086 185.69 178.868 185.94 178.608 186.146C178.347 186.35 178.055 186.505 177.731 186.611C177.409 186.718 177.064 186.771 176.697 186.771C176.077 186.771 175.525 186.62 175.042 186.317C174.559 186.013 174.179 185.583 173.902 185.024C173.625 184.465 173.487 183.802 173.487 183.035C173.487 182.268 173.625 181.605 173.902 181.047C174.179 180.488 174.559 180.057 175.042 179.754C175.525 179.451 176.077 179.299 176.697 179.299C177.064 179.299 177.409 179.353 177.731 179.459C178.055 179.566 178.347 179.722 178.608 179.928C178.868 180.132 179.086 180.38 179.261 180.674C179.436 180.965 179.557 181.298 179.623 181.672ZM181.345 179.399L183.504 185.521H183.589L185.748 179.399H186.671L184.001 186.672H183.092L180.421 179.399H181.345ZM193.315 181.672H192.434C192.382 181.418 192.291 181.196 192.161 181.004C192.033 180.812 191.877 180.651 191.692 180.521C191.51 180.388 191.307 180.289 191.085 180.223C190.862 180.156 190.63 180.123 190.389 180.123C189.948 180.123 189.549 180.235 189.192 180.457C188.837 180.68 188.554 181.008 188.343 181.441C188.135 181.874 188.031 182.406 188.031 183.035C188.031 183.665 188.135 184.196 188.343 184.63C188.554 185.063 188.837 185.391 189.192 185.613C189.549 185.836 189.948 185.947 190.389 185.947C190.63 185.947 190.862 185.914 191.085 185.848C191.307 185.781 191.51 185.683 191.692 185.553C191.877 185.42 192.033 185.258 192.161 185.067C192.291 184.872 192.382 184.65 192.434 184.399H193.315C193.248 184.771 193.128 185.103 192.953 185.397C192.777 185.69 192.56 185.94 192.299 186.146C192.039 186.35 191.746 186.505 191.422 186.611C191.1 186.718 190.756 186.771 190.389 186.771C189.768 186.771 189.217 186.62 188.734 186.317C188.251 186.013 187.871 185.583 187.594 185.024C187.317 184.465 187.178 183.802 187.178 183.035C187.178 182.268 187.317 181.605 187.594 181.047C187.871 180.488 188.251 180.057 188.734 179.754C189.217 179.451 189.768 179.299 190.389 179.299C190.756 179.299 191.1 179.353 191.422 179.459C191.746 179.566 192.039 179.722 192.299 179.928C192.56 180.132 192.777 180.38 192.953 180.674C193.128 180.965 193.248 181.298 193.315 181.672Z" fill="white"/>
<path d="M173.716 206.672V205.12L177.34 201.765C177.648 201.466 177.907 201.198 178.116 200.959C178.328 200.721 178.488 200.487 178.598 200.258C178.707 200.026 178.762 199.776 178.762 199.508C178.762 199.209 178.694 198.952 178.558 198.737C178.422 198.518 178.236 198.351 178.001 198.235C177.766 198.116 177.499 198.056 177.201 198.056C176.889 198.056 176.617 198.119 176.385 198.245C176.153 198.371 175.974 198.551 175.848 198.787C175.723 199.022 175.66 199.302 175.66 199.627H173.616C173.616 198.961 173.767 198.382 174.069 197.892C174.37 197.401 174.793 197.022 175.336 196.753C175.88 196.485 176.506 196.351 177.216 196.351C177.945 196.351 178.58 196.48 179.12 196.738C179.663 196.994 180.086 197.348 180.388 197.802C180.689 198.256 180.84 198.777 180.84 199.363C180.84 199.748 180.764 200.127 180.611 200.502C180.462 200.876 180.195 201.292 179.811 201.75C179.426 202.204 178.884 202.749 178.185 203.385L176.699 204.842V204.912H180.974V206.672H173.716ZM186.298 206.811C185.555 206.811 184.894 206.683 184.314 206.428C183.737 206.17 183.281 205.815 182.947 205.364C182.615 204.91 182.445 204.386 182.435 203.793H184.602C184.615 204.042 184.697 204.26 184.846 204.449C184.998 204.635 185.2 204.779 185.452 204.882C185.704 204.985 185.988 205.036 186.302 205.036C186.631 205.036 186.921 204.978 187.173 204.862C187.424 204.746 187.622 204.585 187.764 204.38C187.907 204.174 187.978 203.937 187.978 203.669C187.978 203.397 187.902 203.157 187.749 202.948C187.6 202.736 187.385 202.57 187.103 202.451C186.825 202.331 186.493 202.272 186.109 202.272H185.159V200.691H186.109C186.433 200.691 186.72 200.634 186.969 200.522C187.221 200.409 187.416 200.253 187.555 200.054C187.695 199.852 187.764 199.617 187.764 199.348C187.764 199.093 187.703 198.87 187.58 198.677C187.461 198.482 187.292 198.329 187.073 198.22C186.858 198.111 186.606 198.056 186.317 198.056C186.026 198.056 185.759 198.109 185.517 198.215C185.275 198.318 185.081 198.465 184.935 198.657C184.789 198.85 184.712 199.075 184.702 199.334H182.638C182.648 198.747 182.816 198.23 183.141 197.782C183.465 197.335 183.903 196.985 184.453 196.733C185.007 196.478 185.631 196.351 186.327 196.351C187.03 196.351 187.645 196.478 188.172 196.733C188.699 196.989 189.108 197.333 189.4 197.768C189.695 198.198 189.841 198.682 189.837 199.219C189.841 199.789 189.663 200.265 189.305 200.646C188.951 201.027 188.488 201.269 187.918 201.372V201.451C188.667 201.548 189.237 201.808 189.628 202.232C190.023 202.653 190.218 203.18 190.215 203.813C190.218 204.393 190.051 204.908 189.713 205.359C189.378 205.81 188.916 206.165 188.326 206.423C187.736 206.682 187.06 206.811 186.298 206.811ZM195.755 206.895C194.9 206.892 194.164 206.682 193.547 206.264C192.934 205.846 192.462 205.241 192.13 204.449C191.802 203.657 191.64 202.704 191.643 201.591C191.643 200.48 191.807 199.534 192.135 198.752C192.467 197.97 192.939 197.375 193.552 196.967C194.169 196.556 194.903 196.351 195.755 196.351C196.607 196.351 197.339 196.556 197.952 196.967C198.569 197.378 199.043 197.975 199.374 198.757C199.705 199.536 199.87 200.48 199.866 201.591C199.866 202.708 199.701 203.662 199.369 204.454C199.041 205.246 198.57 205.851 197.957 206.269C197.344 206.687 196.61 206.895 195.755 206.895ZM195.755 205.111C196.338 205.111 196.804 204.817 197.152 204.231C197.5 203.644 197.672 202.764 197.669 201.591C197.669 200.818 197.589 200.175 197.43 199.662C197.274 199.148 197.052 198.762 196.764 198.503C196.479 198.245 196.143 198.116 195.755 198.116C195.175 198.116 194.711 198.406 194.363 198.986C194.015 199.566 193.839 200.434 193.836 201.591C193.836 202.373 193.914 203.026 194.069 203.549C194.228 204.07 194.452 204.461 194.741 204.723C195.029 204.981 195.367 205.111 195.755 205.111Z" fill="white"/>
<g opacity="0.7">
<rect x="305.23" y="179.442" width="36.3209" height="27.4591" rx="4.20321" fill="white" fill-opacity="0.26" stroke="white" stroke-width="0.898396"/>
<path d="M305.362 187.716H315.248C316.533 187.716 317.575 188.758 317.575 190.042V194.549M317.575 206.791V201.383M317.575 201.383V194.549M317.575 201.383H305.362M317.575 194.549H305.362" stroke="white" stroke-width="0.898396"/>
<path d="M341.418 187.716H329.787M329.787 187.716V194.549M329.787 187.716V179.574M329.787 206.791V201.382M329.787 201.382V194.549M329.787 201.382H341.418M329.787 194.549H341.418" stroke="white" stroke-width="0.898396"/>
</g>
<defs>
<filter id="filter0_b_904_199" x="-22.1752" y="-22.1752" width="408.35" height="278.35" filterUnits="userSpaceOnUse" color-interpolation-filters="sRGB">
<feFlood flood-opacity="0" result="BackgroundImageFix"/>
<feGaussianBlur in="BackgroundImageFix" stdDeviation="11.4545"/>
<feComposite in2="SourceAlpha" operator="in" result="effect1_backgroundBlur_904_199"/>
<feBlend mode="normal" in="SourceGraphic" in2="effect1_backgroundBlur_904_199" result="shape"/>
</filter>
<filter id="filter1_f_904_199" x="45.2627" y="-223.286" width="468.777" height="351.306" filterUnits="userSpaceOnUse" color-interpolation-filters="sRGB">
<feFlood flood-opacity="0" result="BackgroundImageFix"/>
<feBlend mode="normal" in="SourceGraphic" in2="BackgroundImageFix" result="shape"/>
<feGaussianBlur stdDeviation="27.9144" result="effect1_foregroundBlur_904_199"/>
</filter>
<filter id="filter2_f_904_199" x="-7.12112" y="-257.536" width="468.777" height="351.306" filterUnits="userSpaceOnUse" color-interpolation-filters="sRGB">
<feFlood flood-opacity="0" result="BackgroundImageFix"/>
<feBlend mode="normal" in="SourceGraphic" in2="BackgroundImageFix" result="shape"/>
<feGaussianBlur stdDeviation="27.9144" result="effect1_foregroundBlur_904_199"/>
</filter>
<filter id="filter3_di_904_199" x="19.9418" y="88.7646" width="282.081" height="24.4939" filterUnits="userSpaceOnUse" color-interpolation-filters="sRGB">
<feFlood flood-opacity="0" result="BackgroundImageFix"/>
<feColorMatrix in="SourceAlpha" type="matrix" values="0 0 0 0 0 0 0 0 0 0 0 0 0 0 0 0 0 0 127 0" result="hardAlpha"/>
<feOffset dy="1.28342"/>
<feGaussianBlur stdDeviation="1.60428"/>
<feComposite in2="hardAlpha" operator="out"/>
<feColorMatrix type="matrix" values="0 0 0 0 0.0916667 0 0 0 0 0.0916667 0 0 0 0 0.0916667 0 0 0 0.4 0"/>
<feBlend mode="normal" in2="BackgroundImageFix" result="effect1_dropShadow_904_199"/>
<feBlend mode="normal" in="SourceGraphic" in2="effect1_dropShadow_904_199" result="shape"/>
<feColorMatrix in="SourceAlpha" type="matrix" values="0 0 0 0 0 0 0 0 0 0 0 0 0 0 0 0 0 0 127 0" result="hardAlpha"/>
<feOffset dy="2.56684"/>
<feGaussianBlur stdDeviation="1.28342"/>
<feComposite in2="hardAlpha" operator="arithmetic" k2="-1" k3="1"/>
<feColorMatrix type="matrix" values="0 0 0 0 0.683333 0 0 0 0 0.683333 0 0 0 0 0.683333 0 0 0 0.25 0"/>
<feBlend mode="normal" in2="shape" result="effect2_innerShadow_904_199"/>
</filter>
<filter id="filter4_di_904_199" x="20.3179" y="149.351" width="91.0255" height="15.5939" filterUnits="userSpaceOnUse" color-interpolation-filters="sRGB">
<feFlood flood-opacity="0" result="BackgroundImageFix"/>
<feColorMatrix in="SourceAlpha" type="matrix" values="0 0 0 0 0 0 0 0 0 0 0 0 0 0 0 0 0 0 127 0" result="hardAlpha"/>
<feOffset dy="2.56684"/>
<feGaussianBlur stdDeviation="1.28342"/>
<feComposite in2="hardAlpha" operator="out"/>
<feColorMatrix type="matrix" values="0 0 0 0 0.0875 0 0 0 0 0.0875 0 0 0 0 0.0875 0 0 0 0.16 0"/>
<feBlend mode="normal" in2="BackgroundImageFix" result="effect1_dropShadow_904_199"/>
<feBlend mode="normal" in="SourceGraphic" in2="effect1_dropShadow_904_199" result="shape"/>
<feColorMatrix in="SourceAlpha" type="matrix" values="0 0 0 0 0 0 0 0 0 0 0 0 0 0 0 0 0 0 127 0" result="hardAlpha"/>
<feOffset dy="2.56684"/>
<feGaussianBlur stdDeviation="1.28342"/>
<feComposite in2="hardAlpha" operator="arithmetic" k2="-1" k3="1"/>
<feColorMatrix type="matrix" values="0 0 0 0 0.682353 0 0 0 0 0.682353 0 0 0 0 0.682353 0 0 0 0.25 0"/>
<feBlend mode="normal" in2="shape" result="effect2_innerShadow_904_199"/>
</filter>
<filter id="filter5_di_904_199" x="20.1343" y="196.013" width="46.507" height="17.324" filterUnits="userSpaceOnUse" color-interpolation-filters="sRGB">
<feFlood flood-opacity="0" result="BackgroundImageFix"/>
<feColorMatrix in="SourceAlpha" type="matrix" values="0 0 0 0 0 0 0 0 0 0 0 0 0 0 0 0 0 0 127 0" result="hardAlpha"/>
<feOffset dy="2.56684"/>
<feGaussianBlur stdDeviation="1.28342"/>
<feComposite in2="hardAlpha" operator="out"/>
<feColorMatrix type="matrix" values="0 0 0 0 0.0875 0 0 0 0 0.0875 0 0 0 0 0.0875 0 0 0 0.16 0"/>
<feBlend mode="normal" in2="BackgroundImageFix" result="effect1_dropShadow_904_199"/>
<feBlend mode="normal" in="SourceGraphic" in2="effect1_dropShadow_904_199" result="shape"/>
<feColorMatrix in="SourceAlpha" type="matrix" values="0 0 0 0 0 0 0 0 0 0 0 0 0 0 0 0 0 0 127 0" result="hardAlpha"/>
<feOffset dy="2.56684"/>
<feGaussianBlur stdDeviation="1.28342"/>
<feComposite in2="hardAlpha" operator="arithmetic" k2="-1" k3="1"/>
<feColorMatrix type="matrix" values="0 0 0 0 0.682353 0 0 0 0 0.682353 0 0 0 0 0.682353 0 0 0 0.25 0"/>
<feBlend mode="normal" in2="shape" result="effect2_innerShadow_904_199"/>
</filter>
<linearGradient id="paint0_linear_904_199" x1="2" y1="2" x2="130.405" y2="324.275" gradientUnits="userSpaceOnUse">
<stop stop-color="white" stop-opacity="0.4"/>
<stop offset="1" stop-color="white" stop-opacity="0"/>
</linearGradient>
<radialGradient id="paint1_radial_904_199" cx="0" cy="0" r="1" gradientUnits="userSpaceOnUse" gradientTransform="translate(2 2) rotate(32.5741) scale(427.2 269.348)">
<stop stop-color="white" stop-opacity="0.7"/>
<stop offset="0.677083" stop-color="#B691FF" stop-opacity="0.4"/>
<stop offset="1" stop-color="white" stop-opacity="0"/>
</radialGradient>
<linearGradient id="paint2_linear_904_199" x1="351.951" y1="228.167" x2="316.94" y2="84.1868" gradientUnits="userSpaceOnUse">
<stop stop-color="white" stop-opacity="0.32"/>
<stop offset="0.140625" stop-color="#F9FFF5"/>
<stop offset="1" stop-color="white" stop-opacity="0"/>
</linearGradient>
<linearGradient id="paint3_linear_904_199" x1="357.631" y1="3.74243" x2="323.401" y2="148.648" gradientUnits="userSpaceOnUse">
<stop stop-color="#53555E"/>
<stop offset="1" stop-color="white" stop-opacity="0"/>
</linearGradient>
</defs>
</svg>
