<svg width="51" height="20" viewBox="0 0 51 20" fill="none" xmlns="http://www.w3.org/2000/svg">
<path d="M8.48714 4.29481C9.05418 4.10546 9.65902 4.00447 10.2865 4.00447C13.0335 4.00447 15.3269 5.9586 15.8511 8.55653L19.7448 7.76125C18.8526 3.34804 14.9564 0.0255127 10.2865 0.0255127C9.21547 0.0255127 8.18976 0.199718 7.22705 0.522882L8.48714 4.29481Z" fill="#EDDFDF"/>
<path d="M3.89279 16.9335L6.52637 13.9518C5.35197 12.9091 4.61104 11.3867 4.61104 9.69011C4.61104 7.99602 5.35197 6.47362 6.52637 5.43344L3.89279 2.44922C1.89681 4.22157 0.636719 6.80941 0.636719 9.69011C0.636719 12.5733 1.89681 15.1612 3.89279 16.9335" fill="#EDDFDF"/>
<path d="M15.8511 10.8313C15.3244 13.4267 13.0335 15.3783 10.2891 15.3783C9.65902 15.3783 9.05166 15.2773 8.48714 15.0854L7.22705 18.8624C8.18976 19.1831 9.21799 19.3573 10.2891 19.3573C14.9539 19.3573 18.8476 16.0398 19.7448 11.6316L15.8511 10.8313Z" fill="#EDDFDF"/>
<path d="M23.1496 14.0756C23.0211 13.8685 22.8497 13.5378 22.7439 13.2929C22.1264 11.8589 22.0987 10.3743 22.6179 8.95038C23.1899 7.38758 24.2837 6.19339 25.6975 5.58241C27.4742 4.81742 29.4375 4.96637 31.1411 5.97879C32.2223 6.59987 32.9884 7.55926 33.5705 8.91756C33.6436 9.09176 33.7092 9.27607 33.7747 9.43512L23.1496 14.0756ZM26.698 7.88747C25.4354 8.43029 24.7852 9.6169 24.9213 11.0055L30.2641 8.70043C29.3442 7.61985 28.1496 7.26134 26.698 7.88747V7.88747ZM30.9294 12.9016C30.9269 12.9016 30.9269 12.9041 30.9269 12.9041L30.816 12.8283C30.4959 13.3459 29.9995 13.7675 29.3719 14.0402C28.1774 14.5603 27.071 14.4265 26.2746 13.7271L26.2015 13.8382C26.2015 13.8382 26.2015 13.8357 26.199 13.8357L24.8432 15.8681C25.1809 16.1029 25.5413 16.2998 25.9193 16.4589C27.4163 17.0825 28.9485 17.0522 30.4581 16.3958C31.5494 15.9211 32.4062 15.1991 32.9909 14.2826L30.9294 12.9016ZM37.4869 2.59314V13.8887L39.2409 14.6007L38.2455 16.9285L36.31 16.1206C35.8765 15.9312 35.5791 15.6434 35.3574 15.3177C35.1431 14.987 34.9844 14.53 34.9844 13.919V2.59314H37.4869ZM42.0283 11.0131C42.0283 10.0512 42.4542 9.1877 43.1245 8.60197L41.3251 6.59229C40.1054 7.67287 39.3367 9.25082 39.3367 11.008C39.3342 12.7678 40.1028 14.3482 41.3201 15.4288L43.117 13.4191C42.4491 12.8309 42.0283 11.9725 42.0283 11.0131V11.0131ZM45.2239 14.2169C44.871 14.2169 44.5283 14.1563 44.2107 14.0503L43.3514 16.6078C43.9386 16.8048 44.5661 16.9133 45.2213 16.9133C48.0691 16.9159 50.4457 14.891 50.9976 12.2022L48.3564 11.6619C48.0565 13.1237 46.7687 14.2195 45.2239 14.2169V14.2169ZM45.2314 5.11281C44.5787 5.11281 43.9512 5.21885 43.364 5.41325L44.2158 7.97331C44.5358 7.86728 44.8761 7.80921 45.2289 7.80921C46.7763 7.81173 48.0666 8.91251 48.359 10.3768L51.0001 9.8416C50.4583 7.14773 48.0817 5.11533 45.2314 5.11281V5.11281Z" fill="#EDDFDF"/>
</svg>
